<svg xmlns="http://www.w3.org/2000/svg" width="96.875" height="33.281" viewBox="0 0 96.875 33.281">
  <defs>
    <style>
      .cls-1 {
        fill: #004b9a;
        fill-rule: evenodd;
      }
    </style>
  </defs>
  <path id="FaRü" class="cls-1" d="M5.117,51.784H18.862V48.2H5.117V37.648h15.5V34.06H1.137V66.726H5.117V51.784ZM39.858,66.726h3.174V51.247a12.45,12.45,0,0,0-.159-2.063,6.66,6.66,0,0,0-.525-1.721,7.412,7.412,0,0,0-3.211-3.3,11.734,11.734,0,0,0-5.749-1.245q-0.977,0-1.953.1a17.808,17.808,0,0,0-1.855.281,16.157,16.157,0,0,0-1.672.44,9.913,9.913,0,0,0-1.379.549v3.174a20.835,20.835,0,0,1,3.088-.916,15.882,15.882,0,0,1,3.308-.33,7.8,7.8,0,0,1,3.76.769,4.927,4.927,0,0,1,2.026,1.941,4.325,4.325,0,0,1,.415,1.294,10.35,10.35,0,0,1,.122,1.685v1.611h-0.1a17.405,17.405,0,0,0-2.734-.732,19.3,19.3,0,0,0-3.345-.317,11.191,11.191,0,0,0-3.479.513,7.9,7.9,0,0,0-2.7,1.465,6.568,6.568,0,0,0-1.746,2.319,7.4,7.4,0,0,0-.622,3.1,8.351,8.351,0,0,0,.561,3.15,6.621,6.621,0,0,0,1.575,2.356,6.728,6.728,0,0,0,2.417,1.465,9.146,9.146,0,0,0,3.088.5,9.852,9.852,0,0,0,2.344-.269,10.1,10.1,0,0,0,2.026-.72,8.486,8.486,0,0,0,1.636-1.025,7.541,7.541,0,0,0,1.172-1.16h0.1Zm-0.61-5.542q-0.268.269-.839,0.757a10.2,10.2,0,0,1-1.386.977,9.562,9.562,0,0,1-1.859.842,7,7,0,0,1-2.26.354,5.752,5.752,0,0,1-1.738-.256,3.844,3.844,0,0,1-1.409-.781,3.612,3.612,0,0,1-.936-1.331,4.8,4.8,0,0,1-.34-1.88,3.688,3.688,0,0,1,1.361-3.149,6.136,6.136,0,0,1,3.767-1.025,18.667,18.667,0,0,1,3.159.293q1.434,0.269,2.479.562v4.639ZM59.633,53.2L69.692,66.726h3.98L64,52.761v-0.1a14.5,14.5,0,0,0,3.552-1.074,9.343,9.343,0,0,0,2.747-1.88A8.1,8.1,0,0,0,72.085,47a9.339,9.339,0,0,0,.635-3.54,8.591,8.591,0,0,0-1.8-5.579A9.756,9.756,0,0,0,65.7,34.719a17.241,17.241,0,0,0-2.744-.5,35.452,35.452,0,0,0-3.646-.159H50.844V66.726h3.98V53.2h4.81ZM59.34,37.648q1.88,0,3.1.122a11.039,11.039,0,0,1,2.1.391A5.816,5.816,0,0,1,67.446,40a5.273,5.273,0,0,1,1.074,3.381A5.615,5.615,0,0,1,67.4,47.023a6.365,6.365,0,0,1-3.2,2.026,11.51,11.51,0,0,1-2.319.439q-1.294.122-3.125,0.122H54.824V37.648H59.34ZM91.75,66.933a9.119,9.119,0,0,0,2.6-1.135,7.48,7.48,0,0,0,1.892-1.746,8.455,8.455,0,0,0,1.209-2.209,9.674,9.674,0,0,0,.427-1.868,16.7,16.7,0,0,0,.134-2.185V43.532H94.228V57.741a9.1,9.1,0,0,1-.415,2.954,5.085,5.085,0,0,1-1.868,2.49,5.844,5.844,0,0,1-3.455.928,6.043,6.043,0,0,1-3.332-.842,4.8,4.8,0,0,1-1.892-2.307,8.8,8.8,0,0,1-.513-3.223V43.532H78.969V57.766a16.669,16.669,0,0,0,.146,2.295,8.569,8.569,0,0,0,.488,1.929,8.368,8.368,0,0,0,1.2,2.161,7.347,7.347,0,0,0,1.843,1.7,8.8,8.8,0,0,0,2.527,1.1,12.425,12.425,0,0,0,3.247.391A12.678,12.678,0,0,0,91.75,66.933Zm-5.969-28.8V34.06H81.9v4.077h3.882Zm9.3,0V34.06H91.2v4.077h3.882Z" transform="translate(-1.125 -34.063)"/>
</svg>
